<svg width="22" height="22" viewBox="0 0 22 22" fill="none" xmlns="http://www.w3.org/2000/svg">
<g clip-path="url(#clip0_448_30)">
<path fill-rule="evenodd" clip-rule="evenodd" d="M8.04788 3.50073C8.04788 3.50073 5.55183 3.40565 2.85892 5.38752C2.85892 5.38752 0.166016 10.0585 0.166016 15.8169C0.166016 15.8169 1.65865 18.4019 5.75163 18.5C5.75163 18.5 6.34957 17.7081 6.95338 17.0114C4.65419 16.3161 3.7595 14.9255 3.7595 14.9255C3.7595 14.9255 3.9593 15.0235 4.259 15.2226H4.34715C4.39008 15.2226 4.41082 15.2424 4.43274 15.2634L4.43676 15.2672V15.2761C4.46027 15.2999 4.48084 15.3207 4.52638 15.3207C9.41416 17.3263 13.4998 17.7898 18.1613 14.8215C18.1613 14.8215 17.2652 16.2121 14.8705 16.9074C15.3641 17.5997 16.0575 18.393 16.0575 18.393C19.4124 18.32 21.0865 16.5713 21.6312 16.0024C21.7513 15.877 21.8165 15.8089 21.8327 15.8288C21.8327 10.0793 19.1236 5.39941 19.1236 5.39941C16.7025 3.60918 14.44 3.52896 14.0125 3.52747L13.7393 3.79935C16.8318 4.69075 18.3288 6.08281 18.3288 6.08281C10.8167 2.344 4.5277 5.45879 3.58038 5.92797C3.51096 5.96235 3.47023 5.98253 3.4598 5.98476C3.4598 5.98476 4.9539 4.49612 8.24915 3.70129L8.04788 3.50073ZM14.3344 14.2451C15.379 14.2451 16.2296 13.3537 16.2296 12.2543C16.2296 11.1624 15.3834 10.271 14.3344 10.271V10.2754C13.2943 10.2754 12.4422 11.1638 12.4393 12.2632C12.4393 13.3537 13.2899 14.2451 14.3344 14.2451ZM9.4457 12.2543C9.4457 13.3537 8.59508 14.2451 7.55054 14.2451C6.50599 14.2451 5.65537 13.3537 5.65537 12.2632C5.65537 11.1638 6.50599 10.2754 7.55054 10.2754L7.55641 10.271C8.60096 10.271 9.4457 11.1624 9.4457 12.2543Z" fill="#9B70FF"/>
<path d="M14.0213 3.52004L14.0698 3.50221H14.039L14.0213 3.52004Z" fill="#9B70FF"/>
</g>
<defs>
<clipPath id="clip0_448_30">
<rect width="21.6667" height="21.6667" fill="white" transform="translate(0.166016 0.166748)"/>
</clipPath>
</defs>
</svg>
