<svg width="22" height="22" viewBox="0 0 22 22" fill="none" xmlns="http://www.w3.org/2000/svg">
<g clip-path="url(#clip0_448_22)">
<path d="M10.9993 0.618164C5.01393 0.618164 0.166016 5.38483 0.166016 11.2637C0.166016 15.9681 3.26976 19.9575 7.57331 21.364C8.11497 21.4642 8.31358 21.1347 8.31358 20.8521C8.31358 20.5993 8.30456 19.9295 8.30004 19.0421C5.28657 19.6839 4.65101 17.6139 4.65101 17.6139C4.1581 16.3852 3.44581 16.0566 3.44581 16.0566C2.46449 15.3966 3.52164 15.4102 3.52164 15.4102C4.60949 15.4842 5.18095 16.5071 5.18095 16.5071C6.14692 18.1348 7.71685 17.6644 8.33615 17.3927C8.43365 16.7039 8.71261 16.2353 9.02227 15.969C6.61636 15.7027 4.08768 14.7873 4.08768 10.7085C4.08768 9.54663 4.50747 8.59691 5.20261 7.85212C5.08074 7.58309 4.71511 6.50066 5.2974 5.03455C5.2974 5.03455 6.2047 4.74927 8.27657 6.12601C9.14324 5.88948 10.0641 5.77212 10.9849 5.76671C11.9057 5.77212 12.8266 5.88948 13.6932 6.12601C15.7516 4.74927 16.6589 5.03455 16.6589 5.03455C17.2412 6.50066 16.8755 7.58309 16.7672 7.85212C17.4578 8.59691 17.8776 9.54663 17.8776 10.7085C17.8776 14.7981 15.3453 15.6982 12.9349 15.96C13.3141 16.2795 13.6662 16.9323 13.6662 17.9298C13.6662 19.3544 13.6526 20.4991 13.6526 20.8449C13.6526 21.1239 13.8422 21.457 14.3974 21.3505C18.7316 19.953 21.8327 15.9609 21.8327 11.2637C21.8327 5.38483 16.9821 0.618164 10.9993 0.618164Z" fill="#9B70FF"/>
</g>
<defs>
<clipPath id="clip0_448_22">
<rect width="21.6667" height="21.6667" fill="white" transform="translate(0.166016 0.166748)"/>
</clipPath>
</defs>
</svg>
