<svg width="113" height="28" viewBox="0 0 113 28" fill="none" xmlns="http://www.w3.org/2000/svg">
<g clip-path="url(#clip0_448_40)">
<path d="M35.9583 4.44966V6.89225H34.4822V4.4686L31.1377 0.132543H32.9501L35.2203 3.17157L37.5185 0.132543H39.2842L35.9583 4.44966Z" fill="white"/>
<path d="M40.0005 1.78933H41.4485V6.89225H40.0005V1.78933ZM39.9818 0H41.4672V1.02248H39.9818V0Z" fill="white"/>
<path d="M49.0725 4.34552C49.0725 4.45282 49.0662 4.56958 49.0538 4.69582H43.9996C44.0432 5.15025 44.2144 5.48792 44.5134 5.70883C44.8186 5.92973 45.2577 6.04018 45.8307 6.04018C46.3414 6.04018 46.7182 5.96444 46.9611 5.81297C47.204 5.66149 47.3472 5.48792 47.3908 5.29226H49.0164C48.9541 5.81612 48.677 6.24531 48.1849 6.57982C47.6991 6.90803 46.9144 7.07213 45.8307 7.07213C44.7283 7.07213 43.8937 6.83544 43.3269 6.36207C42.7664 5.88871 42.4861 5.21652 42.4861 4.34552C42.4861 3.47453 42.7633 2.80234 43.3176 2.32897C43.8781 1.8556 44.6971 1.61892 45.7746 1.61892C46.8521 1.61892 47.6711 1.8556 48.2316 2.32897C48.7922 2.80234 49.0725 3.47453 49.0725 4.34552ZM45.7746 2.65086C44.7968 2.65086 44.2207 3.00747 44.0463 3.72068H47.5123C47.4251 3.36092 47.2351 3.09267 46.9424 2.91595C46.6559 2.73923 46.2666 2.65086 45.7746 2.65086Z" fill="white"/>
<path d="M50.1092 0.0378696H51.5572V6.89225H50.1092V0.0378696Z" fill="white"/>
<path d="M57.6957 2.46152V0.0378696H59.1438V6.89225H57.7237V6.22006H57.677C57.2037 6.78811 56.4999 7.07213 55.5656 7.07213C54.6314 7.07213 53.9027 6.83544 53.3795 6.36207C52.8564 5.88871 52.5948 5.22283 52.5948 4.36446C52.5948 3.50608 52.8533 2.84337 53.3702 2.37631C53.8934 1.90294 54.6252 1.66626 55.5656 1.66626C56.4625 1.66626 57.157 1.93134 57.649 2.46152H57.6957ZM55.902 5.94551C56.4874 5.94551 56.939 5.8035 57.2566 5.51948C57.5742 5.23546 57.7331 4.85045 57.7331 4.36446C57.7331 3.87847 57.5742 3.49346 57.2566 3.20944C56.939 2.92542 56.4874 2.78341 55.902 2.78341C54.7062 2.78341 54.1082 3.31042 54.1082 4.36446C54.1082 5.41849 54.7062 5.94551 55.902 5.94551Z" fill="white"/>
<path d="M33.2677 13.2852H38.1538V14.4213H33.2677V16.1633H38.4434V17.3562H31.7917V10.5965H38.3219V11.7894H33.2677V13.2852Z" fill="white"/>
<path d="M41.0282 12.9065H41.0749C41.6105 12.389 42.3548 12.1302 43.3077 12.1302C44.0364 12.1302 44.6188 12.2848 45.0547 12.5941C45.4969 12.8971 45.7181 13.361 45.7181 13.9858V17.3562H44.27V14.4781C44.27 14.0678 44.1454 13.7712 43.8963 13.5882C43.6472 13.3988 43.2766 13.3041 42.7846 13.3041C42.3112 13.3041 41.9033 13.4241 41.5607 13.6639C41.2244 13.8974 41.0562 14.2667 41.0562 14.7716V17.3562H39.6082V12.2533H41.0282V12.9065Z" fill="white"/>
<path d="M50.6703 12.1302C51.399 12.1302 51.9813 12.2848 52.4173 12.5941C52.8595 12.8971 53.0806 13.361 53.0806 13.9858V17.3562H51.6325V14.4781C51.6325 14.0678 51.508 13.7712 51.2588 13.5882C51.0097 13.3988 50.6391 13.3041 50.1471 13.3041C49.6738 13.3041 49.2658 13.4241 48.9233 13.6639C48.5869 13.8974 48.4188 14.2667 48.4188 14.7716V17.3562H46.9707V10.5018H48.4188V12.9065H48.4655C48.9762 12.389 49.7111 12.1302 50.6703 12.1302Z" fill="white"/>
<path d="M60.1909 16.5325C60.1909 16.7219 60.2002 16.8797 60.2189 17.0059C60.2376 17.1321 60.275 17.23 60.331 17.2994V17.3562H58.911C58.8176 17.2615 58.7709 17.069 58.7709 16.7787V16.6177C58.5217 16.927 58.1948 17.1574 57.7899 17.3088C57.3851 17.4603 56.8868 17.5361 56.2952 17.5361C55.6287 17.5361 55.09 17.4004 54.6789 17.129C54.2679 16.8513 54.0623 16.441 54.0623 15.8982C54.0623 15.3807 54.2025 14.9957 54.4827 14.7432C54.7692 14.4907 55.1492 14.3424 55.6225 14.2982L58.0702 14.071C58.282 14.0584 58.4345 14.0174 58.528 13.9479C58.6276 13.8785 58.6774 13.7681 58.6774 13.6166C58.6774 13.4462 58.5778 13.3199 58.3785 13.2379C58.1792 13.1495 57.8491 13.1053 57.3882 13.1053C56.9273 13.1053 56.5754 13.159 56.3325 13.2663C56.0896 13.3673 55.9526 13.5377 55.9215 13.7775H54.3706C54.3893 13.1527 54.6571 12.714 55.1741 12.4616C55.6972 12.2091 56.4228 12.0829 57.3508 12.0829C58.3037 12.0829 59.0138 12.1933 59.4809 12.4142C59.9542 12.6288 60.1909 13.0296 60.1909 13.6166V16.5325ZM58.7428 14.8473C58.6681 14.9041 58.5217 14.9452 58.3037 14.9704L56.3512 15.1976C56.1021 15.2292 55.909 15.2986 55.772 15.4059C55.6412 15.5069 55.5758 15.6647 55.5758 15.8793C55.5758 16.1191 55.6661 16.2927 55.8467 16.4C56.0336 16.501 56.3045 16.5515 56.6595 16.5515C57.2325 16.5515 57.7214 16.4378 58.1262 16.2106C58.5373 15.9834 58.7428 15.6173 58.7428 15.1124V14.8473Z" fill="white"/>
<path d="M62.8604 12.9065H62.9071C63.4427 12.389 64.187 12.1302 65.1399 12.1302C65.8686 12.1302 66.451 12.2848 66.8869 12.5941C67.3291 12.8971 67.5502 13.361 67.5502 13.9858V17.3562H66.1022V14.4781C66.1022 14.0678 65.9776 13.7712 65.7285 13.5882C65.4794 13.3988 65.1088 13.3041 64.6167 13.3041C64.1434 13.3041 63.7355 13.4241 63.3929 13.6639C63.0566 13.8974 62.8884 14.2667 62.8884 14.7716V17.3562H61.4404V12.2533H62.8604V12.9065Z" fill="white"/>
<path d="M71.8859 16.4094C72.4464 16.4094 72.8481 16.3211 73.091 16.1444C73.3402 15.9613 73.4927 15.7183 73.5488 15.4154H75.1837C75.0093 16.8292 73.91 17.5361 71.8859 17.5361C70.8084 17.5361 69.9894 17.2994 69.4288 16.826C68.8683 16.3526 68.588 15.6805 68.588 14.8095C68.588 13.9385 68.8652 13.2663 69.4195 12.7929C69.98 12.3195 70.8022 12.0829 71.8859 12.0829C73.8851 12.0829 74.9782 12.7771 75.165 14.1657H73.5488C73.4803 13.869 73.3246 13.6355 73.0817 13.4651C72.8388 13.2884 72.4402 13.2 71.8859 13.2C71.2942 13.2 70.8489 13.3357 70.5499 13.6071C70.251 13.8785 70.1015 14.2793 70.1015 14.8095C70.1015 15.3333 70.251 15.731 70.5499 16.0023C70.8489 16.2737 71.2942 16.4094 71.8859 16.4094Z" fill="white"/>
<path d="M82.5825 14.8095C82.5825 14.9168 82.5763 15.0335 82.5638 15.1598H77.5096C77.5532 15.6142 77.7245 15.9519 78.0235 16.1728C78.3287 16.3937 78.7677 16.5041 79.3407 16.5041C79.8514 16.5041 80.2283 16.4284 80.4712 16.2769C80.7141 16.1254 80.8573 15.9519 80.9009 15.7562H82.5265C82.4642 16.2801 82.187 16.7092 81.695 17.0438C81.2092 17.372 80.4244 17.5361 79.3407 17.5361C78.2383 17.5361 77.4038 17.2994 76.837 16.826C76.2765 16.3526 75.9962 15.6805 75.9962 14.8095C75.9962 13.9385 76.2733 13.2663 76.8277 12.7929C77.3882 12.3195 78.2072 12.0829 79.2847 12.0829C80.3622 12.0829 81.1812 12.3195 81.7417 12.7929C82.3022 13.2663 82.5825 13.9385 82.5825 14.8095ZM79.2847 13.1148C78.3069 13.1148 77.7307 13.4714 77.5564 14.1846H81.0224C80.9352 13.8249 80.7452 13.5566 80.4525 13.3799C80.166 13.2032 79.7767 13.1148 79.2847 13.1148Z" fill="white"/>
<path d="M85.0393 12.9255H85.086C85.304 12.6541 85.5905 12.4552 85.9455 12.329C86.3067 12.1965 86.696 12.1302 87.1132 12.1302C88.0724 12.1302 88.7201 12.4016 89.0564 12.9444C89.2993 12.6667 89.6139 12.4616 90 12.329C90.3862 12.1965 90.8128 12.1302 91.2799 12.1302C91.9277 12.1302 92.4508 12.2817 92.8494 12.5846C93.2543 12.8876 93.4567 13.3483 93.4567 13.9669V17.3562H92.0086V14.3645C92.0086 13.9984 91.8965 13.7302 91.6723 13.5598C91.4481 13.3894 91.1367 13.3041 90.7381 13.3041C90.3457 13.3041 90 13.4146 89.7011 13.6355C89.4083 13.8501 89.262 14.1815 89.262 14.6296V17.3562H87.8139V14.3645C87.8139 13.9984 87.7018 13.7302 87.4776 13.5598C87.2534 13.3894 86.942 13.3041 86.5434 13.3041C86.151 13.3041 85.8053 13.4146 85.5064 13.6355C85.2136 13.8501 85.0673 14.1815 85.0673 14.6296V17.3562H83.6192V12.2533H85.0393V12.9255Z" fill="white"/>
<path d="M101.076 14.8095C101.076 14.9168 101.069 15.0335 101.057 15.1598H96.0027C96.0463 15.6142 96.2176 15.9519 96.5165 16.1728C96.8217 16.3937 97.2608 16.5041 97.8338 16.5041C98.3445 16.5041 98.7213 16.4284 98.9642 16.2769C99.2071 16.1254 99.3503 15.9519 99.3939 15.7562H101.019C100.957 16.2801 100.68 16.7092 100.188 17.0438C99.7022 17.372 98.9175 17.5361 97.8338 17.5361C96.7314 17.5361 95.8968 17.2994 95.33 16.826C94.7695 16.3526 94.4892 15.6805 94.4892 14.8095C94.4892 13.9385 94.7664 13.2663 95.3207 12.7929C95.8812 12.3195 96.7002 12.0829 97.7777 12.0829C98.8552 12.0829 99.6742 12.3195 100.235 12.7929C100.795 13.2663 101.076 13.9385 101.076 14.8095ZM97.7777 13.1148C96.7999 13.1148 96.2238 13.4714 96.0494 14.1846H99.5154C99.4282 13.8249 99.2382 13.5566 98.9455 13.3799C98.659 13.2032 98.2697 13.1148 97.7777 13.1148Z" fill="white"/>
<path d="M103.532 12.9065H103.579C104.115 12.389 104.859 12.1302 105.812 12.1302C106.541 12.1302 107.123 12.2848 107.559 12.5941C108.001 12.8971 108.222 13.361 108.222 13.9858V17.3562H106.774V14.4781C106.774 14.0678 106.65 13.7712 106.4 13.5882C106.151 13.3988 105.781 13.3041 105.289 13.3041C104.815 13.3041 104.407 13.4241 104.065 13.6639C103.728 13.8974 103.56 14.2667 103.56 14.7716V17.3562H102.112V12.2533H103.532V12.9065Z" fill="white"/>
<path d="M112.075 16.239C112.455 16.239 112.757 16.2169 112.981 16.1728V17.3562C112.857 17.3814 112.689 17.4004 112.477 17.413C112.271 17.4319 112.075 17.4414 111.888 17.4414C111.377 17.4414 110.979 17.3941 110.692 17.2994C110.412 17.2047 110.21 17.0532 110.085 16.8449C109.967 16.6304 109.908 16.3369 109.908 15.9645V13.2189H108.88V12.2533H109.908V10.8521H111.356V12.2533H113V13.2189H111.356V15.7183C111.356 15.914 111.412 16.0497 111.524 16.1254C111.636 16.2012 111.82 16.239 112.075 16.239Z" fill="white"/>
<path d="M31.7917 27.8201V21.0604H33.2677V26.5704H38.4247V27.8201H31.7917Z" fill="white"/>
<path d="M45.3837 26.9965C45.3837 27.1858 45.393 27.3436 45.4117 27.4698C45.4304 27.5961 45.4678 27.6939 45.5238 27.7633V27.8201H44.1038C44.0104 27.7254 43.9637 27.5329 43.9637 27.2426V27.0817C43.7145 27.3909 43.3876 27.6213 42.9827 27.7728C42.5779 27.9243 42.0796 28 41.488 28C40.8215 28 40.2828 27.8643 39.8717 27.5929C39.4607 27.3152 39.2551 26.9049 39.2551 26.3621C39.2551 25.8446 39.3953 25.4596 39.6755 25.2071C39.962 24.9547 40.342 24.8063 40.8153 24.7622L43.263 24.5349C43.4748 24.5223 43.6273 24.4813 43.7208 24.4119C43.8204 24.3424 43.8702 24.232 43.8702 24.0805C43.8702 23.9101 43.7706 23.7839 43.5713 23.7018C43.372 23.6135 43.0419 23.5693 42.581 23.5693C42.1201 23.5693 41.7682 23.6229 41.5253 23.7302C41.2824 23.8312 41.1454 24.0016 41.1143 24.2415H39.5634C39.5821 23.6166 39.8499 23.178 40.3669 22.9255C40.89 22.673 41.6156 22.5468 42.5436 22.5468C43.4966 22.5468 44.2066 22.6572 44.6737 22.8782C45.147 23.0927 45.3837 23.4935 45.3837 24.0805V26.9965ZM43.9356 25.3113C43.8609 25.3681 43.7145 25.4091 43.4966 25.4343L41.544 25.6616C41.2949 25.6931 41.1018 25.7625 40.9648 25.8698C40.834 25.9708 40.7686 26.1286 40.7686 26.3432C40.7686 26.583 40.8589 26.7566 41.0395 26.8639C41.2264 26.9649 41.4973 27.0154 41.8523 27.0154C42.4253 27.0154 42.9142 26.9018 43.319 26.6746C43.7301 26.4474 43.9356 26.0813 43.9356 25.5764V25.3113Z" fill="white"/>
<path d="M48.1279 23.3894C48.62 22.8592 49.3144 22.5941 50.2113 22.5941C51.1517 22.5941 51.8804 22.8308 52.3974 23.3042C52.9205 23.7712 53.1821 24.434 53.1821 25.2923C53.1821 26.1507 52.9205 26.8166 52.3974 27.2899C51.8742 27.7633 51.1455 28 50.2113 28C49.277 28 48.5732 27.716 48.0999 27.1479H48.0532V27.8201H46.6332V20.9657H48.0812V23.3894H48.1279ZM49.8749 26.8734C51.0708 26.8734 51.6687 26.3464 51.6687 25.2923C51.6687 24.2383 51.0708 23.7113 49.8749 23.7113C49.2895 23.7113 48.8379 23.8533 48.5203 24.1373C48.2027 24.4213 48.0438 24.8063 48.0438 25.2923C48.0438 25.7783 48.2027 26.1633 48.5203 26.4474C48.8379 26.7314 49.2895 26.8734 49.8749 26.8734Z" fill="white"/>
<path d="M58.428 24.2509C58.3969 23.9858 58.2537 23.7996 57.9983 23.6923C57.7429 23.585 57.3693 23.5314 56.8772 23.5314C56.4101 23.5314 56.0738 23.5787 55.8683 23.6734C55.6627 23.7618 55.56 23.8943 55.56 24.071C55.56 24.2162 55.6129 24.3235 55.7188 24.3929C55.8309 24.456 56.0146 24.4971 56.27 24.516L58.4748 24.7148C59.0291 24.7653 59.4526 24.9073 59.7453 25.1409C60.038 25.3681 60.1844 25.7468 60.1844 26.2769C60.1844 26.7251 60.063 27.0754 59.8201 27.3278C59.5834 27.5803 59.2377 27.7538 58.7831 27.8485C58.3346 27.9495 57.7585 28 57.0547 28C56.3696 28 55.7966 27.9495 55.3357 27.8485C54.8811 27.7475 54.5198 27.5613 54.252 27.2899C53.9904 27.0122 53.8534 26.6241 53.841 26.1255H55.4105C55.4478 26.4537 55.6036 26.6809 55.8776 26.8071C56.1516 26.9333 56.5627 26.9965 57.1108 26.9965C57.6339 26.9965 58.0139 26.946 58.2505 26.845C58.4872 26.7377 58.6056 26.5767 58.6056 26.3621C58.6056 26.1917 58.5495 26.0718 58.4374 26.0024C58.3315 25.9266 58.1509 25.8762 57.8955 25.8509L55.7935 25.6332C55.2205 25.5764 54.7814 25.4375 54.4762 25.2166C54.1773 24.9957 54.0278 24.6391 54.0278 24.1468C54.0278 23.5535 54.2707 23.1401 54.7565 22.9066C55.2423 22.6667 55.9586 22.5468 56.9052 22.5468C57.8706 22.5468 58.618 22.673 59.1474 22.9255C59.683 23.178 59.9633 23.6198 59.9882 24.2509H58.428Z" fill="white"/>
<path d="M4.26855 25.9636H23.353V28H4.26855V25.9636Z" fill="white"/>
<path fill-rule="evenodd" clip-rule="evenodd" d="M13.8117 16.5454C16.0307 16.5454 17.8295 14.7219 17.8295 12.4726C17.8295 10.2233 16.0307 8.3999 13.8117 8.3999C11.5928 8.3999 9.79395 10.2233 9.79395 12.4726C9.79395 14.7219 11.5928 16.5454 13.8117 16.5454Z" fill="white"/>
<path d="M15.5691 24.8191C21.5319 23.9545 26.1157 18.7563 26.1157 12.4727C26.1157 5.58422 20.6067 0 13.8113 0C7.01583 0 1.50684 5.58422 1.50684 12.4727C1.50684 18.7563 6.09068 23.9545 12.0535 24.8191V17.2431C11.4205 17.0034 10.848 16.6378 10.3656 16.1764L9.54239 17.0108V21.1274L7.54724 21.1273L7.54748 20.1091H8.53795V17.9688L6.06436 20.3012V17.3973H4.77128V16.3792H7.0688V17.9636L8.69146 16.4335L9.70571 15.4055C9.12845 14.5765 8.78906 13.5647 8.78906 12.4727C8.78906 11.3807 9.12821 10.3691 9.70547 9.54011L8.69146 8.51211L7.0688 6.98198V8.56642H4.77128V7.54824H6.06436V4.64434L8.53795 6.97676V4.83649H7.54748L7.54724 3.81831L9.54239 3.81818V7.93478L10.3654 8.76914C11.2646 7.90906 12.4773 7.38182 13.8113 7.38182C15.1453 7.38182 16.358 7.90906 17.2572 8.76914L18.0802 7.93478V3.81818L20.0753 3.81831L20.0751 4.83649H19.0846V6.97676L21.5582 4.64434V7.54824H22.8513V8.56642H20.5538V6.98198L18.9311 8.51211L17.9171 9.54011C18.4944 10.3691 18.8335 11.3807 18.8335 12.4727C18.8335 13.5647 18.4941 14.5765 17.9169 15.4055L18.9311 16.4335L20.5538 17.9636V16.3792H22.8513V17.3973H21.5582V20.3012L19.0846 17.9688V20.1091H20.0751L20.0753 21.1273L18.0802 21.1274V17.0108L17.257 16.1764C16.7746 16.6378 16.2021 17.0034 15.5691 17.2431V24.8191Z" fill="url(#paint0_radial_448_40)"/>
<path d="M13.0576 17.3091H14.5643V24.9454H13.0576V17.3091Z" fill="white"/>
</g>
<defs>
<radialGradient id="paint0_radial_448_40" cx="0" cy="0" r="1" gradientUnits="userSpaceOnUse" gradientTransform="translate(13.8113 12.4096) rotate(90) scale(12.4096 12.2421)">
<stop offset="0.181406" stop-color="white" stop-opacity="0"/>
<stop offset="0.805208" stop-color="white"/>
</radialGradient>
<clipPath id="clip0_448_40">
<rect width="113" height="28" fill="white"/>
</clipPath>
</defs>
</svg>
