<svg width="22" height="22" viewBox="0 0 22 22" fill="none" xmlns="http://www.w3.org/2000/svg">
<g clip-path="url(#clip0_448_14)">
<path d="M19.4177 8.56983C18.7334 8.56983 18.1313 8.85782 17.688 9.3065C16.0585 8.16177 13.8611 7.42511 11.4263 7.34657L12.6911 1.56337L16.7184 2.48059C16.7184 3.48087 17.5219 4.29789 18.5077 4.29789C19.5125 4.29789 20.3205 3.45921 20.3205 2.45803C20.3205 1.45684 19.5179 0.618164 18.5086 0.618164C17.8054 0.618164 17.1987 1.04879 16.8963 1.6374L12.4483 0.637122C12.2244 0.576636 12.005 0.739136 11.9454 0.966636L10.557 7.34205C8.14112 7.44407 5.96723 8.17983 4.3323 9.32546C3.88904 8.85782 3.26341 8.56983 2.57911 8.56983C0.0404956 8.56983 -0.790963 12.0266 1.53369 13.2083C1.45154 13.5739 1.41452 13.9639 1.41452 14.353C1.41452 18.2359 5.72529 21.3821 11.0183 21.3821C16.3338 21.3821 20.6446 18.2359 20.6446 14.353C20.6446 13.9639 20.604 13.5559 20.5038 13.1893C22.7815 12.0031 21.9428 8.57164 19.4177 8.56983ZM5.22244 13.4539C5.22244 12.4346 6.02591 11.614 7.03522 11.614C8.02105 11.614 8.82543 12.4292 8.82543 13.4539C8.82543 14.455 8.02195 15.2712 7.03522 15.2712C6.03043 15.2757 5.22244 14.455 5.22244 13.4539ZM15.0076 17.7854C13.3456 19.4718 8.6557 19.4718 6.99279 17.7854C6.80952 17.6229 6.80952 17.3358 6.99279 17.1507C7.15258 16.9882 7.43605 16.9882 7.59584 17.1507C8.86515 18.4715 13.0757 18.4941 14.4001 17.1507C14.5599 16.9882 14.8433 16.9882 15.0031 17.1507C15.19 17.3367 15.19 17.6238 15.0076 17.7854ZM14.9706 15.2748C13.9848 15.2748 13.1813 14.4596 13.1813 13.4593C13.1813 12.44 13.9848 11.6194 14.9706 11.6194C15.9754 11.6194 16.7834 12.4346 16.7834 13.4593C16.7789 14.455 15.9754 15.2748 14.9706 15.2748Z" fill="#9B70FF"/>
</g>
<defs>
<clipPath id="clip0_448_14">
<rect width="21.6667" height="21.6667" fill="white" transform="translate(0.166016 0.166748)"/>
</clipPath>
</defs>
</svg>
