<svg width="22" height="22" viewBox="0 0 22 22" fill="none" xmlns="http://www.w3.org/2000/svg">
<g clip-path="url(#clip0_448_26)">
<path d="M19.6064 6.58821C20.4875 5.96258 21.2287 5.18168 21.8327 4.28251V4.28161C21.0265 4.6346 20.1689 4.86932 19.2733 4.98307C20.1941 4.43328 20.8974 3.56932 21.2278 2.52841C20.3693 3.04029 19.4214 3.4014 18.4112 3.60362C17.5959 2.73515 16.4341 2.198 15.1666 2.198C12.7074 2.198 10.7276 4.19404 10.7276 6.64057C10.7276 6.99265 10.7574 7.33119 10.8305 7.65348C7.13817 7.47293 3.87011 5.70348 1.67456 3.00689C1.29178 3.67223 1.06608 4.43328 1.06608 5.25209C1.06608 6.79043 1.85782 8.15362 3.03956 8.94355C2.32546 8.93001 1.62581 8.72237 1.03268 8.39647V8.44522C1.03268 10.6038 2.57192 12.3967 4.59143 12.8102C4.22942 12.9095 3.83581 12.9564 3.42685 12.9564C3.14247 12.9564 2.85539 12.9401 2.58636 12.8806C3.16143 14.6392 4.79546 15.9329 6.73643 15.9753C5.22518 17.157 3.30588 17.8693 1.22859 17.8693C0.864766 17.8693 0.515391 17.8531 0.166016 17.8088C2.13407 19.0772 4.46504 19.8022 6.98018 19.8022C14.819 19.8022 19.9278 13.2624 19.6064 6.58821Z" fill="#9B70FF"/>
</g>
<defs>
<clipPath id="clip0_448_26">
<rect width="21.6667" height="21.6667" fill="white" transform="translate(0.166016 0.166748)"/>
</clipPath>
</defs>
</svg>
