<svg width="20" height="20" viewBox="0 0 20 20" fill="none" xmlns="http://www.w3.org/2000/svg">
<path d="M18.91 8.90909C18.91 13.3973 15.591 17.1104 11.2736 17.728V12.3165C11.732 12.1453 12.1465 11.8841 12.4957 11.5546L13.0918 12.1506V15.091L14.5364 15.0909L14.5362 14.3636H13.8191V12.8349L15.6101 14.5009V12.4267H16.5463V11.6994H14.8828V12.8311L13.7079 11.7382L12.9735 11.0039C13.3915 10.4118 13.6373 9.6891 13.6373 8.90909C13.6373 8.12908 13.3917 7.40652 12.9737 6.81436L13.7079 6.08008L14.8828 4.98713V6.11887H16.5463V5.3916H15.6101V3.31738L13.8191 4.9834V3.45463H14.5362L14.5364 2.72736L13.0918 2.72727V5.6677L12.4959 6.26367C11.8448 5.64933 10.9668 5.27273 10.0009 5.27273C9.03498 5.27273 8.15696 5.64933 7.50586 6.26367L6.90998 5.6677V2.72727L5.46538 2.72736L5.46555 3.45463H6.18271V4.9834L4.39169 3.31738V5.3916H3.45543V6.11887H5.11896V4.98713L6.29386 6.08008L7.02805 6.81436C6.61009 7.40652 6.36452 8.12908 6.36452 8.90909C6.36452 9.6891 6.61026 10.4118 7.02823 11.0039L6.29386 11.7382L5.11896 12.8311V11.6994H3.45543V12.4267H4.39169V14.5009L6.18271 12.8349V14.3636H5.46555L5.46538 15.0909L6.90998 15.091V12.1506L7.50604 11.5546C7.8553 11.8841 8.26981 12.1453 8.72816 12.3165V17.728C4.41075 17.1104 1.0918 13.3973 1.0918 8.90909C1.0918 3.98873 5.08061 0 10.0009 0C14.9212 0 18.91 3.98873 18.91 8.90909Z" fill="url(#paint0_linear_448_140)"/>
<path fill-rule="evenodd" clip-rule="evenodd" d="M10.0009 11.8182C11.6075 11.8182 12.91 10.5157 12.91 8.90909C12.91 7.30244 11.6075 6 10.0009 6C8.39424 6 7.0918 7.30244 7.0918 8.90909C7.0918 10.5157 8.39424 11.8182 10.0009 11.8182ZM8.72816 8.90909C8.72816 8.20618 9.29798 7.63636 10.0009 7.63636V6.90909C8.89632 6.90909 8.00089 7.80452 8.00089 8.90909C8.00089 10.0137 8.89632 10.9091 10.0009 10.9091C11.1055 10.9091 12.0009 10.0137 12.0009 8.90909H11.2736C11.2736 9.612 10.7038 10.1818 10.0009 10.1818C9.29798 10.1818 8.72816 9.612 8.72816 8.90909Z" fill="url(#paint1_linear_448_140)"/>
<path d="M16.91 20V18.5455H3.0918V20H16.91Z" fill="url(#paint2_linear_448_140)"/>
<path d="M10.5463 12.3636H9.45543V17.8182H10.5463V12.3636Z" fill="url(#paint3_linear_448_140)"/>
<defs>
<linearGradient id="paint0_linear_448_140" x1="1.00098" y1="5.93154e-09" x2="19.001" y2="20" gradientUnits="userSpaceOnUse">
<stop stop-color="#DE81FF"/>
<stop offset="1" stop-color="#847AFF"/>
</linearGradient>
<linearGradient id="paint1_linear_448_140" x1="1.00098" y1="5.93154e-09" x2="19.001" y2="20" gradientUnits="userSpaceOnUse">
<stop stop-color="#DE81FF"/>
<stop offset="1" stop-color="#847AFF"/>
</linearGradient>
<linearGradient id="paint2_linear_448_140" x1="1.00098" y1="5.93154e-09" x2="19.001" y2="20" gradientUnits="userSpaceOnUse">
<stop stop-color="#DE81FF"/>
<stop offset="1" stop-color="#847AFF"/>
</linearGradient>
<linearGradient id="paint3_linear_448_140" x1="1.00098" y1="5.93154e-09" x2="19.001" y2="20" gradientUnits="userSpaceOnUse">
<stop stop-color="#DE81FF"/>
<stop offset="1" stop-color="#847AFF"/>
</linearGradient>
</defs>
</svg>
