<svg width="140" height="34" viewBox="0 0 140 34" fill="none" xmlns="http://www.w3.org/2000/svg">
<g clip-path="url(#clip0_448_119)">
<path d="M44.5506 5.40316V8.36916H42.7218V5.42616L38.5781 0.160945H40.8236L43.6362 3.85119L46.4835 0.160945H48.6711L44.5506 5.40316Z" fill="white"/>
<path d="M49.5586 2.17276H51.3526V8.36916H49.5586V2.17276ZM49.5354 0H51.3758V1.24158H49.5354V0Z" fill="white"/>
<path d="M60.7982 5.27671C60.7982 5.407 60.7905 5.54878 60.775 5.70206H54.5132C54.5672 6.25388 54.7794 6.6639 55.1498 6.93214C55.5279 7.20039 56.0719 7.33451 56.7818 7.33451C57.4146 7.33451 57.8814 7.24254 58.1823 7.0586C58.4833 6.87466 58.6607 6.6639 58.7148 6.42632H60.7287C60.6516 7.06243 60.3082 7.58359 59.6986 7.98979C59.0967 8.38832 58.1245 8.58758 56.7818 8.58758C55.416 8.58758 54.382 8.30018 53.6798 7.72538C52.9854 7.15057 52.6381 6.33435 52.6381 5.27671C52.6381 4.21907 52.9815 3.40284 53.6683 2.82804C54.3627 2.25323 55.3774 1.96583 56.7124 1.96583C58.0473 1.96583 59.062 2.25323 59.7565 2.82804C60.4509 3.40284 60.7982 4.21907 60.7982 5.27671ZM56.7124 3.21891C55.5009 3.21891 54.7871 3.65193 54.5711 4.51796H58.8652C58.7572 4.08111 58.5218 3.75539 58.1592 3.5408C57.8042 3.3262 57.322 3.21891 56.7124 3.21891Z" fill="white"/>
<path d="M62.0826 0.0459845H63.8766V8.36916H62.0826V0.0459845Z" fill="white"/>
<path d="M71.4818 2.98898V0.0459845H73.2759V8.36916H71.5166V7.55293H71.4587C70.8723 8.2427 70.0003 8.58758 68.8428 8.58758C67.6854 8.58758 66.7826 8.30018 66.1344 7.72538C65.4862 7.15057 65.1621 6.34201 65.1621 5.2997C65.1621 4.25739 65.4824 3.45266 66.1228 2.88552C66.771 2.31071 67.6777 2.02331 68.8428 2.02331C69.954 2.02331 70.8144 2.3452 71.424 2.98898H71.4818ZM69.2595 7.21955C69.9849 7.21955 70.5443 7.04711 70.9378 6.70222C71.3314 6.35734 71.5281 5.88983 71.5281 5.2997C71.5281 4.70957 71.3314 4.24206 70.9378 3.89718C70.5443 3.55229 69.9849 3.37985 69.2595 3.37985C67.778 3.37985 67.0372 4.0198 67.0372 5.2997C67.0372 6.5796 67.778 7.21955 69.2595 7.21955Z" fill="white"/>
<path d="M41.2171 16.132H47.2706V17.5116H41.2171V19.6269H47.6294V21.0754H39.3883V12.8672H47.479V14.3157H41.2171V16.132Z" fill="white"/>
<path d="M50.8319 15.6722H50.8897C51.5533 15.0437 52.4754 14.7295 53.6561 14.7295C54.5589 14.7295 55.2803 14.9173 55.8205 15.2928C56.3684 15.6607 56.6423 16.224 56.6423 16.9828V21.0754H54.8482V17.5806C54.8482 17.0824 54.6939 16.7222 54.3852 16.4999C54.0766 16.27 53.6175 16.155 53.0079 16.155C52.4214 16.155 51.916 16.3007 51.4916 16.5919C51.0749 16.8755 50.8666 17.3238 50.8666 17.9369V21.0754H49.0725V14.879H50.8319V15.6722Z" fill="white"/>
<path d="M62.7778 14.7295C63.6806 14.7295 64.4021 14.9173 64.9422 15.2928C65.4901 15.6607 65.764 16.224 65.764 16.9828V21.0754H63.97V17.5806C63.97 17.0824 63.8156 16.7222 63.507 16.4999C63.1983 16.27 62.7392 16.155 62.1296 16.155C61.5432 16.155 61.0377 16.3007 60.6133 16.5919C60.1967 16.8755 59.9883 17.3238 59.9883 17.9369V21.0754H58.1943V12.7522H59.9883V15.6722H60.0462C60.6789 15.0437 61.5895 14.7295 62.7778 14.7295Z" fill="white"/>
<path d="M74.5732 20.0752C74.5732 20.3051 74.5848 20.4967 74.608 20.65C74.6311 20.8033 74.6774 20.9221 74.7469 21.0064V21.0754H72.9875C72.8718 20.9604 72.8139 20.7267 72.8139 20.3741V20.1787C72.5053 20.5542 72.1002 20.8339 71.5986 21.0179C71.097 21.2018 70.4797 21.2938 69.7467 21.2938C68.921 21.2938 68.2535 21.129 67.7443 20.7995C67.235 20.4622 66.9803 19.9641 66.9803 19.305C66.9803 18.6765 67.154 18.209 67.5012 17.9024C67.8561 17.5959 68.3268 17.4158 68.9133 17.3621L71.9458 17.0862C72.2082 17.0709 72.3972 17.0211 72.513 16.9368C72.6364 16.8525 72.6982 16.7183 72.6982 16.5344C72.6982 16.3275 72.5747 16.1742 72.3278 16.0746C72.0809 15.9673 71.6719 15.9136 71.1009 15.9136C70.5299 15.9136 70.0939 15.9788 69.793 16.1091C69.492 16.2317 69.3223 16.4386 69.2837 16.7298H67.3623C67.3855 15.9711 67.7173 15.4384 68.3577 15.1319C69.0059 14.8253 69.9048 14.672 71.0546 14.672C72.2352 14.672 73.1148 14.8062 73.6936 15.0744C74.28 15.335 74.5732 15.8217 74.5732 16.5344V20.0752ZM72.7792 18.0289C72.6866 18.0979 72.5053 18.1477 72.2352 18.1783L69.8161 18.4543C69.5075 18.4926 69.2682 18.5769 69.0985 18.7072C68.9364 18.8298 68.8554 19.0214 68.8554 19.282C68.8554 19.5732 68.9673 19.784 69.1911 19.9143C69.4226 20.0369 69.7582 20.0982 70.1981 20.0982C70.908 20.0982 71.5137 19.9602 72.0153 19.6843C72.5245 19.4084 72.7792 18.9639 72.7792 18.3508V18.0289Z" fill="white"/>
<path d="M77.8806 15.6722H77.9384C78.6021 15.0437 79.5242 14.7295 80.7048 14.7295C81.6076 14.7295 82.3291 14.9173 82.8692 15.2928C83.4171 15.6607 83.691 16.224 83.691 16.9828V21.0754H81.8969V17.5806C81.8969 17.0824 81.7426 16.7222 81.434 16.4999C81.1253 16.27 80.6662 16.155 80.0566 16.155C79.4701 16.155 78.9647 16.3007 78.5403 16.5919C78.1236 16.8755 77.9153 17.3238 77.9153 17.9369V21.0754H76.1212V14.879H77.8806V15.6722Z" fill="white"/>
<path d="M89.0626 19.9258C89.7571 19.9258 90.2548 19.8185 90.5557 19.6039C90.8644 19.3816 91.0534 19.0865 91.1229 18.7187H93.1484C92.9323 20.4354 91.5704 21.2938 89.0626 21.2938C87.7277 21.2938 86.713 21.0064 86.0185 20.4316C85.324 19.8568 84.9768 19.0406 84.9768 17.9829C84.9768 16.9253 85.3201 16.1091 86.0069 15.5342C86.7014 14.9594 87.7199 14.672 89.0626 14.672C91.5395 14.672 92.8938 15.5151 93.1253 17.2012H91.1229C91.038 16.841 90.8451 16.5574 90.5441 16.3505C90.2432 16.1359 89.7493 16.0286 89.0626 16.0286C88.3295 16.0286 87.7778 16.1934 87.4074 16.5229C87.037 16.8525 86.8518 17.3391 86.8518 17.9829C86.8518 18.619 87.037 19.1019 87.4074 19.4314C87.7778 19.761 88.3295 19.9258 89.0626 19.9258Z" fill="white"/>
<path d="M102.315 17.9829C102.315 18.1132 102.307 18.255 102.292 18.4083H96.0301C96.0841 18.9601 96.2963 19.3701 96.6667 19.6384C97.0448 19.9066 97.5888 20.0407 98.2987 20.0407C98.9314 20.0407 99.3983 19.9487 99.6992 19.7648C100 19.5809 100.178 19.3701 100.232 19.1325H102.246C102.168 19.7686 101.825 20.2898 101.215 20.696C100.614 21.0945 99.6414 21.2938 98.2987 21.2938C96.9329 21.2938 95.8989 21.0064 95.1967 20.4316C94.5023 19.8568 94.155 19.0406 94.155 17.9829C94.155 16.9253 94.4984 16.1091 95.1852 15.5342C95.8796 14.9594 96.8943 14.672 98.2293 14.672C99.5642 14.672 100.579 14.9594 101.273 15.5342C101.968 16.1091 102.315 16.9253 102.315 17.9829ZM98.2293 15.9251C97.0178 15.9251 96.304 16.3581 96.088 17.2242H100.382C100.274 16.7873 100.039 16.4616 99.6761 16.247C99.3211 16.0324 98.8389 15.9251 98.2293 15.9251Z" fill="white"/>
<path d="M105.359 15.6952H105.417C105.687 15.3656 106.042 15.1242 106.482 14.9709C106.929 14.81 107.411 14.7295 107.928 14.7295C109.117 14.7295 109.919 15.0591 110.336 15.7182C110.637 15.381 111.026 15.1319 111.505 14.9709C111.983 14.81 112.512 14.7295 113.091 14.7295C113.893 14.7295 114.541 14.9135 115.035 15.2813C115.537 15.6492 115.787 16.2087 115.787 16.9598V21.0754H113.993V17.4426C113.993 16.9981 113.855 16.6724 113.577 16.4654C113.299 16.2585 112.913 16.155 112.419 16.155C111.933 16.155 111.505 16.2892 111.135 16.5574C110.772 16.818 110.591 17.2203 110.591 17.7645V21.0754H108.796V17.4426C108.796 16.9981 108.658 16.6724 108.38 16.4654C108.102 16.2585 107.716 16.155 107.222 16.155C106.736 16.155 106.308 16.2892 105.938 16.5574C105.575 16.818 105.394 17.2203 105.394 17.7645V21.0754H103.599V14.879H105.359V15.6952Z" fill="white"/>
<path d="M125.227 17.9829C125.227 18.1132 125.219 18.255 125.204 18.4083H118.942C118.996 18.9601 119.208 19.3701 119.578 19.6384C119.957 19.9066 120.501 20.0407 121.21 20.0407C121.843 20.0407 122.31 19.9487 122.611 19.7648C122.912 19.5809 123.089 19.3701 123.143 19.1325H125.157C125.08 19.7686 124.737 20.2898 124.127 20.696C123.525 21.0945 122.553 21.2938 121.21 21.2938C119.845 21.2938 118.811 21.0064 118.108 20.4316C117.414 19.8568 117.067 19.0406 117.067 17.9829C117.067 16.9253 117.41 16.1091 118.097 15.5342C118.791 14.9594 119.806 14.672 121.141 14.672C122.476 14.672 123.491 14.9594 124.185 15.5342C124.88 16.1091 125.227 16.9253 125.227 17.9829ZM121.141 15.9251C119.93 15.9251 119.216 16.3581 119 17.2242H123.294C123.186 16.7873 122.95 16.4616 122.588 16.247C122.233 16.0324 121.751 15.9251 121.141 15.9251Z" fill="white"/>
<path d="M128.271 15.6722H128.328C128.992 15.0437 129.914 14.7295 131.095 14.7295C131.998 14.7295 132.719 14.9173 133.259 15.2928C133.807 15.6607 134.081 16.224 134.081 16.9828V21.0754H132.287V17.5806C132.287 17.0824 132.133 16.7222 131.824 16.4999C131.515 16.27 131.056 16.155 130.447 16.155C129.86 16.155 129.355 16.3007 128.93 16.5919C128.514 16.8755 128.305 17.3238 128.305 17.9369V21.0754H126.511V14.879H128.271V15.6722Z" fill="white"/>
<path d="M138.854 19.7188C139.325 19.7188 139.699 19.692 139.977 19.6384V21.0754C139.823 21.106 139.615 21.129 139.352 21.1443C139.098 21.1673 138.854 21.1788 138.623 21.1788C137.99 21.1788 137.496 21.1213 137.141 21.0064C136.794 20.8914 136.543 20.7075 136.389 20.4546C136.242 20.194 136.169 19.8376 136.169 19.3854V16.0516H134.896V14.879H136.169V13.1775H137.963V14.879H140V16.0516H137.963V19.0865C137.963 19.3241 138.033 19.4889 138.172 19.5809C138.31 19.6728 138.538 19.7188 138.854 19.7188Z" fill="white"/>
<path d="M39.3883 33.7816V25.5734H41.2171V32.2641H47.6063V33.7816H39.3883Z" fill="white"/>
<path d="M56.228 32.7814C56.228 33.0113 56.2396 33.2029 56.2628 33.3562C56.2859 33.5095 56.3322 33.6283 56.4017 33.7126V33.7816H54.6423C54.5266 33.6666 54.4687 33.4329 54.4687 33.0803V32.8849C54.1601 33.2604 53.7549 33.5402 53.2534 33.7241C52.7518 33.908 52.1345 34 51.4015 34C50.5758 34 49.9083 33.8352 49.3991 33.5057C48.8898 33.1684 48.6351 32.6703 48.6351 32.0112C48.6351 31.3827 48.8088 30.9152 49.156 30.6087C49.5109 30.3021 49.9816 30.122 50.5681 30.0683L53.6006 29.7924C53.863 29.7771 54.052 29.7273 54.1678 29.643C54.2912 29.5587 54.353 29.4246 54.353 29.2406C54.353 29.0337 54.2295 28.8804 53.9826 28.7808C53.7357 28.6735 53.3267 28.6198 52.7557 28.6198C52.1847 28.6198 51.7487 28.685 51.4478 28.8153C51.1468 28.9379 50.9771 29.1448 50.9385 29.4361H49.0171C49.0402 28.6773 49.3721 28.1447 50.0125 27.8381C50.6607 27.5315 51.5596 27.3782 52.7094 27.3782C53.89 27.3782 54.7696 27.5124 55.3484 27.7806C55.9348 28.0412 56.228 28.5279 56.228 29.2406V32.7814ZM54.434 30.7351C54.3414 30.8041 54.1601 30.8539 53.89 30.8846L51.4709 31.1605C51.1622 31.1988 50.923 31.2831 50.7533 31.4134C50.5912 31.536 50.5102 31.7276 50.5102 31.9882C50.5102 32.2794 50.6221 32.4902 50.8459 32.6205C51.0774 32.7431 51.413 32.8044 51.8529 32.8044C52.5628 32.8044 53.1685 32.6665 53.6701 32.3905C54.1793 32.1146 54.434 31.6701 54.434 31.057V30.7351Z" fill="white"/>
<path d="M59.628 28.4014C60.2376 27.7576 61.0979 27.4357 62.2091 27.4357C63.3743 27.4357 64.2771 27.7231 64.9175 28.2979C65.5657 28.8651 65.8898 29.6698 65.8898 30.7121C65.8898 31.7544 65.5657 32.563 64.9175 33.1378C64.2694 33.7126 63.3666 34 62.2091 34C61.0516 34 60.1797 33.6551 59.5933 32.9654H59.5354V33.7816H57.776V25.4584H59.5701V28.4014H59.628ZM61.7924 32.632C63.274 32.632 64.0147 31.992 64.0147 30.7121C64.0147 29.4322 63.274 28.7923 61.7924 28.7923C61.0671 28.7923 60.5076 28.9647 60.1141 29.3096C59.7206 29.6545 59.5238 30.122 59.5238 30.7121C59.5238 31.3022 59.7206 31.7698 60.1141 32.1146C60.5076 32.4595 61.0671 32.632 61.7924 32.632Z" fill="white"/>
<path d="M72.3892 29.4475C72.3506 29.1257 72.1731 28.8996 71.8568 28.7693C71.5404 28.639 71.0774 28.5738 70.4678 28.5738C69.8891 28.5738 69.4724 28.6313 69.2178 28.7463C68.9631 28.8536 68.8358 29.0145 68.8358 29.2291C68.8358 29.4054 68.9014 29.5357 69.0326 29.62C69.1715 29.6966 69.3991 29.7464 69.7155 29.7694L72.4471 30.0109C73.1338 30.0722 73.6585 30.2446 74.0212 30.5282C74.3839 30.8041 74.5652 31.2639 74.5652 31.9077C74.5652 32.4519 74.4147 32.8772 74.1138 33.1838C73.8206 33.4903 73.3923 33.7011 72.829 33.8161C72.2734 33.9387 71.5597 34 70.6877 34C69.8389 34 69.129 33.9387 68.558 33.8161C67.9947 33.6934 67.5472 33.4673 67.2154 33.1378C66.8913 32.8006 66.7215 32.3292 66.7061 31.7238H68.6506C68.6969 32.1223 68.8898 32.3982 69.2293 32.5515C69.5688 32.7048 70.0781 32.7814 70.7572 32.7814C71.4053 32.7814 71.876 32.7201 72.1693 32.5975C72.4625 32.4672 72.6091 32.2718 72.6091 32.0112C72.6091 31.8042 72.5396 31.6586 72.4008 31.5743C72.2696 31.4824 72.0458 31.421 71.7294 31.3904L69.1252 31.126C68.4153 31.057 67.8713 30.8884 67.4931 30.6201C67.1228 30.3519 66.9376 29.9189 66.9376 29.3211C66.9376 28.6007 67.2385 28.0987 67.8404 27.8151C68.4423 27.5239 69.3296 27.3782 70.5025 27.3782C71.6986 27.3782 72.6245 27.5315 73.2804 27.8381C73.944 28.1447 74.2913 28.6811 74.3221 29.4475H72.3892Z" fill="white"/>
<path d="M5.28809 31.5273H28.9325V34.0001H5.28809V31.5273Z" fill="white"/>
<path fill-rule="evenodd" clip-rule="evenodd" d="M17.1106 20.0911C19.8597 20.0911 22.0884 17.8769 22.0884 15.1456C22.0884 12.4144 19.8597 10.2002 17.1106 10.2002C14.3614 10.2002 12.1328 12.4144 12.1328 15.1456C12.1328 17.8769 14.3614 20.0911 17.1106 20.0911Z" fill="white"/>
<path d="M19.2884 30.1375C26.676 29.0877 32.3551 22.7755 32.3551 15.1455C32.3551 6.78083 25.5298 0 17.1107 0C8.69151 0 1.86621 6.78083 1.86621 15.1455C1.86621 22.7755 7.54531 29.0877 14.9329 30.1375V20.9381C14.1486 20.6469 13.4393 20.2031 12.8417 19.6428L11.8218 20.656V25.6547L9.34989 25.6545L9.3502 24.4182H10.5773V21.8193L7.5127 24.6515V21.1253H5.91066V19.889H8.75714V21.8129L10.7675 19.9549L12.0241 18.7066C11.3089 17.7 10.8884 16.4715 10.8884 15.1455C10.8884 13.8194 11.3086 12.5911 12.0238 11.5844L10.7675 10.3361L8.75714 8.47812V10.4021H5.91066V9.16572H7.5127V5.63955L10.5773 8.47178V5.87288H9.3502L9.34989 4.63651L11.8218 4.63636V9.63509L12.8414 10.6482C13.9555 9.60385 15.4579 8.96364 17.1107 8.96364C18.7634 8.96364 20.2658 9.60385 21.3799 10.6482L22.3995 9.63509V4.63636L24.8714 4.63651L24.8711 5.87288H23.644V8.47178L26.7086 5.63955V9.16572H28.3107V10.4021H25.4642V8.47812L23.4538 10.3361L22.1975 11.5844C22.9127 12.5911 23.3329 13.8194 23.3329 15.1455C23.3329 16.4715 22.9124 17.7 22.1972 18.7066L23.4538 19.9549L25.4642 21.8129V19.889H28.3107V21.1253H26.7086V24.6515L23.644 21.8193V24.4182H24.8711L24.8714 25.6545L22.3995 25.6547V20.656L21.3796 19.6428C20.782 20.2031 20.0727 20.6469 19.2884 20.9381V30.1375Z" fill="url(#paint0_radial_448_119)"/>
<path d="M16.1777 21.0181H18.0444V30.2908H16.1777V21.0181Z" fill="white"/>
</g>
<defs>
<radialGradient id="paint0_radial_448_119" cx="0" cy="0" r="1" gradientUnits="userSpaceOnUse" gradientTransform="translate(17.1107 15.0688) rotate(90) scale(15.0688 15.1673)">
<stop offset="0.181406" stop-color="white" stop-opacity="0"/>
<stop offset="0.805208" stop-color="white"/>
</radialGradient>
<clipPath id="clip0_448_119">
<rect width="140" height="34" fill="white"/>
</clipPath>
</defs>
</svg>
